<mxfile host="app.diagrams.net" agent="Mozilla/5.0 (Windows NT 10.0; Win64; x64) AppleWebKit/537.36 (KHTML, like Gecko) Chrome/138.0.0.0 Safari/537.36" version="27.2.0">
  <diagram name="第 1 页" id="jqnPtRpUKLhsEgk0Oy-9">
    <mxGraphModel dx="983" dy="583" grid="0" gridSize="10" guides="1" tooltips="1" connect="1" arrows="1" fold="1" page="0" pageScale="1" pageWidth="827" pageHeight="1169" math="0" shadow="0">
      <root>
        <mxCell id="0" />
        <mxCell id="1" parent="0" />
        <mxCell id="OQwb_SyBURKM92orqpgl-5" style="edgeStyle=orthogonalEdgeStyle;rounded=0;orthogonalLoop=1;jettySize=auto;html=1;exitX=0.5;exitY=0;exitDx=0;exitDy=0;entryX=0.5;entryY=1;entryDx=0;entryDy=0;" parent="1" source="OQwb_SyBURKM92orqpgl-1" target="OQwb_SyBURKM92orqpgl-4" edge="1">
          <mxGeometry relative="1" as="geometry" />
        </mxCell>
        <mxCell id="OQwb_SyBURKM92orqpgl-9" style="edgeStyle=orthogonalEdgeStyle;rounded=0;orthogonalLoop=1;jettySize=auto;html=1;exitX=1;exitY=0.5;exitDx=0;exitDy=0;entryX=0;entryY=0.5;entryDx=0;entryDy=0;" parent="1" source="OQwb_SyBURKM92orqpgl-1" target="OQwb_SyBURKM92orqpgl-8" edge="1">
          <mxGeometry relative="1" as="geometry" />
        </mxCell>
        <mxCell id="OQwb_SyBURKM92orqpgl-1" value="&lt;font style=&quot;&quot;&gt;&lt;span style=&quot;font-weight: bold; font-size: 16px;&quot;&gt;master&lt;/span&gt;&lt;br&gt;&lt;font style=&quot;&quot;&gt;0625版本&lt;/font&gt;&lt;/font&gt;" style="rounded=1;whiteSpace=wrap;html=1;fillColor=#f8cecc;strokeColor=#b85450;" parent="1" vertex="1">
          <mxGeometry x="294" y="430" width="120" height="60" as="geometry" />
        </mxCell>
        <mxCell id="OQwb_SyBURKM92orqpgl-4" value="&lt;font style=&quot;&quot;&gt;&lt;span style=&quot;font-weight: bold; font-size: 16px;&quot;&gt;master(联服宝)&lt;/span&gt;&lt;br&gt;&lt;font style=&quot;&quot;&gt;最新版本&lt;/font&gt;&lt;/font&gt;" style="rounded=1;whiteSpace=wrap;html=1;fillColor=#f8cecc;strokeColor=#b85450;" parent="1" vertex="1">
          <mxGeometry x="294" y="207" width="120" height="60" as="geometry" />
        </mxCell>
        <mxCell id="OQwb_SyBURKM92orqpgl-6" value="迭代进度" style="text;html=1;align=center;verticalAlign=middle;whiteSpace=wrap;rounded=0;" parent="1" vertex="1">
          <mxGeometry x="259" y="319" width="60" height="30" as="geometry" />
        </mxCell>
        <mxCell id="OQwb_SyBURKM92orqpgl-11" style="edgeStyle=orthogonalEdgeStyle;rounded=0;orthogonalLoop=1;jettySize=auto;html=1;exitX=0.5;exitY=0;exitDx=0;exitDy=0;entryX=0.5;entryY=1;entryDx=0;entryDy=0;" parent="1" source="OQwb_SyBURKM92orqpgl-8" target="OQwb_SyBURKM92orqpgl-10" edge="1">
          <mxGeometry relative="1" as="geometry" />
        </mxCell>
        <mxCell id="OQwb_SyBURKM92orqpgl-14" style="edgeStyle=orthogonalEdgeStyle;rounded=0;orthogonalLoop=1;jettySize=auto;html=1;exitX=1;exitY=0.5;exitDx=0;exitDy=0;" parent="1" source="OQwb_SyBURKM92orqpgl-8" target="OQwb_SyBURKM92orqpgl-13" edge="1">
          <mxGeometry relative="1" as="geometry" />
        </mxCell>
        <mxCell id="OQwb_SyBURKM92orqpgl-8" value="&lt;font style=&quot;&quot;&gt;&lt;span style=&quot;font-weight: bold; font-size: 16px;&quot;&gt;master_znb&lt;/span&gt;&lt;br&gt;智农宝专用&lt;/font&gt;" style="rounded=1;whiteSpace=wrap;html=1;fillColor=#f8cecc;strokeColor=#b85450;" parent="1" vertex="1">
          <mxGeometry x="476" y="430" width="120" height="60" as="geometry" />
        </mxCell>
        <mxCell id="OQwb_SyBURKM92orqpgl-10" value="&lt;font style=&quot;&quot;&gt;&lt;span style=&quot;font-weight: bold; font-size: 16px;&quot;&gt;test_znb&lt;/span&gt;&lt;br&gt;智农宝专用测试&lt;/font&gt;" style="rounded=1;whiteSpace=wrap;html=1;fillColor=#d5e8d4;strokeColor=#82b366;" parent="1" vertex="1">
          <mxGeometry x="476" y="289" width="120" height="60" as="geometry" />
        </mxCell>
        <mxCell id="OQwb_SyBURKM92orqpgl-17" style="edgeStyle=orthogonalEdgeStyle;rounded=0;orthogonalLoop=1;jettySize=auto;html=1;exitX=0.25;exitY=0;exitDx=0;exitDy=0;entryX=1;entryY=0.5;entryDx=0;entryDy=0;" parent="1" source="OQwb_SyBURKM92orqpgl-13" target="OQwb_SyBURKM92orqpgl-10" edge="1">
          <mxGeometry relative="1" as="geometry" />
        </mxCell>
        <mxCell id="OQwb_SyBURKM92orqpgl-20" style="edgeStyle=orthogonalEdgeStyle;rounded=0;orthogonalLoop=1;jettySize=auto;html=1;exitX=0.75;exitY=0;exitDx=0;exitDy=0;entryX=1;entryY=0.5;entryDx=0;entryDy=0;" parent="1" source="OQwb_SyBURKM92orqpgl-13" target="OQwb_SyBURKM92orqpgl-4" edge="1">
          <mxGeometry relative="1" as="geometry" />
        </mxCell>
        <mxCell id="OQwb_SyBURKM92orqpgl-13" value="&lt;font style=&quot;&quot;&gt;&lt;span style=&quot;font-weight: bold; font-size: 16px;&quot;&gt;feature_gisCallBack&lt;/span&gt;&lt;br&gt;0718版本&lt;/font&gt;" style="rounded=1;whiteSpace=wrap;html=1;fillColor=#dae8fc;strokeColor=#6c8ebf;" parent="1" vertex="1">
          <mxGeometry x="661" y="367" width="157" height="60" as="geometry" />
        </mxCell>
        <mxCell id="OQwb_SyBURKM92orqpgl-15" value="newBranch" style="text;html=1;align=center;verticalAlign=middle;whiteSpace=wrap;rounded=0;fontSize=10;" parent="1" vertex="1">
          <mxGeometry x="416" y="460" width="60" height="30" as="geometry" />
        </mxCell>
        <mxCell id="OQwb_SyBURKM92orqpgl-16" value="newBranch" style="text;html=1;align=center;verticalAlign=middle;whiteSpace=wrap;rounded=0;fontSize=10;" parent="1" vertex="1">
          <mxGeometry x="636" y="460" width="60" height="30" as="geometry" />
        </mxCell>
        <mxCell id="OQwb_SyBURKM92orqpgl-19" value="Merge" style="text;html=1;align=center;verticalAlign=middle;whiteSpace=wrap;rounded=0;fontSize=15;fontStyle=1" parent="1" vertex="1">
          <mxGeometry x="640" y="237" width="60" height="30" as="geometry" />
        </mxCell>
        <mxCell id="OQwb_SyBURKM92orqpgl-21" value="Merge" style="text;html=1;align=center;verticalAlign=middle;whiteSpace=wrap;rounded=0;fontSize=15;fontStyle=1" parent="1" vertex="1">
          <mxGeometry x="640" y="319" width="60" height="30" as="geometry" />
        </mxCell>
        <mxCell id="O3YkCYbT6n3J3SaZLAAe-1" value="" style="shape=flexArrow;endArrow=classic;html=1;rounded=0;" edge="1" parent="1">
          <mxGeometry width="50" height="50" relative="1" as="geometry">
            <mxPoint x="251" y="484" as="sourcePoint" />
            <mxPoint x="251" y="224" as="targetPoint" />
          </mxGeometry>
        </mxCell>
        <mxCell id="O3YkCYbT6n3J3SaZLAAe-2" value="newBranch" style="text;html=1;align=center;verticalAlign=middle;whiteSpace=wrap;rounded=0;fontSize=10;" vertex="1" parent="1">
          <mxGeometry x="534" y="375" width="60" height="30" as="geometry" />
        </mxCell>
      </root>
    </mxGraphModel>
  </diagram>
</mxfile>
